# xmcd
#
# Track frame offsets:
#	150
#	9560
#	20271
#	30821
#	40334
#	50416
#	60915
#	71402
#	80870
#	89098
#	100422
#	112214
#	122780
#	130791
#	141390
#	152555
#	163371
#	171411
#	181632
#	190850
#	201725
#	210043
#	220595
#	231163
#	242103
#	250555
#
# Disc length: 3476
#
# Revision: 1
# Processed by: cddbd v1.5.1PL0 Copyright (c) Steve Scherf et al.
# Submitted via: EasyCDDAExtractor 4.6.0.1
# Normalized: r0:TDELIM( - )
#
DISCID=6b0d921a
DTITLE=Various Artist - Explosive DooWops  Vol 03
DYEAR=1900
DGENRE=blues
TTITLE0=Five Trojans (Nicky St. Clair and the) - I Hear Those Bells
TTITLE1=Cubs - Why Did You Make Me Cry
TTITLE2=Marcels - Bells
TTITLE3=Tony Dell and group - My Girl
TTITLE4=Montereys - Branchin' Out
TTITLE5=Charades - Make Me Happy Baby
TTITLE6=Visions - All Through The Night
TTITLE7=Reminiscents - For Your Love
TTITLE8=Dreams (Frankie Ross and the) - Around The Corner
TTITLE9=Stereos - Dodle-Ee-Do
TTITLE10=Masters (Rick and the) - I Don't Want Your Love
TTITLE11=Matadors - Perfidia
TTITLE12=Love Tones (Raymond Pope and the) - Star
TTITLE13=Creations - I've Got A Feeling
TTITLE14=Roamers - Chop Chop Ching A Ling
TTITLE15=Acorns - Angel
TTITLE16=Cameos - Please Love Me
TTITLE17=Underbeats - Book Of Love
TTITLE18=Pharaos - Head Up, High Hopes Over You
TTITLE19=Penguins - I Knew I'd Fall In Love
TTITLE20=Paramounts - Girl Friend
TTITLE21=Ebb-Tides (Nino and the) - Tell The World I Do
TTITLE22=Crowns - Kiss And Make Up
TTITLE23=Valrays - Yo Me Pregunta(I Ask Myself)
TTITLE24=Young Lions - Little Girl
TTITLE25=T-Birds - Nobody But You
EXTD=
EXTT0=
EXTT1=
EXTT2=
EXTT3=
EXTT4=
EXTT5=
EXTT6=
EXTT7=
EXTT8=
EXTT9=
EXTT10=
EXTT11=
EXTT12=
EXTT13=
EXTT14=
EXTT15=
EXTT16=
EXTT17=
EXTT18=
EXTT19=
EXTT20=
EXTT21=
EXTT22=
EXTT23=
EXTT24=
EXTT25=
PLAYORDER=
